<svg width="22" height="19" viewBox="0 0 22 19" fill="none" xmlns="http://www.w3.org/2000/svg">
<path fill-rule="evenodd" clip-rule="evenodd" d="M11.6924 4.58369C11.3055 4.955 10.6945 4.955 10.3076 4.58369L9.6152 3.91923C8.80477 3.1415 7.70994 2.66663 6.5 2.66663C4.01472 2.66663 2 4.68134 2 7.16663C2 9.54925 3.28979 11.5167 5.15176 13.1332C7.01532 14.7511 9.2434 15.8241 10.5746 16.3717C10.853 16.4862 11.147 16.4862 11.4254 16.3717C12.7566 15.8241 14.9847 14.7511 16.8482 13.1332C18.7102 11.5167 20 9.54925 20 7.16663C20 4.68134 17.9853 2.66663 15.5 2.66663C14.2901 2.66663 13.1952 3.1415 12.3848 3.91923L11.6924 4.58369ZM11 2.4762C9.83211 1.35543 8.24649 0.666626 6.5 0.666626C2.91015 0.666626 0 3.57678 0 7.16663C0 13.5349 6.97034 17.0516 9.81379 18.2213C10.5796 18.5363 11.4204 18.5363 12.1862 18.2213C15.0297 17.0516 22 13.5349 22 7.16663C22 3.57678 19.0899 0.666626 15.5 0.666626C13.7535 0.666626 12.1679 1.35543 11 2.4762Z" fill="#141718"/>
</svg>
